<?xml version="1.0" encoding="UTF-8"?>
<svg width="30" height="42" viewBox="0 0 30 42" fill="none" xmlns="http://www.w3.org/2000/svg">
  <path d="M13.2343 17.2409L7.70618 11.9122L6.21994 12.6553L8.19958 17.3134L13.2343 17.2409Z" fill="url(#paint0_linear_347_310)"/>
  <path fill-rule="evenodd" clip-rule="evenodd" d="M0.0111281 14.4958C0.320721 6.68551 7.02114 0.2813 15.0325 0.555713C22.9742 0.827946 29.2494 7.56485 29.0658 15.4163C28.8853 23.1291 22.5373 29.3446 15.0315 29.5923C6.78902 29.8645 -0.320074 22.8592 0.0111281 14.4958ZM14.9765 2.19135C7.87768 1.9482 1.92087 7.63735 1.64644 14.5606C1.35334 21.9619 7.67279 28.1978 14.9775 27.9566C18.9959 27.8239 22.6453 25.7542 24.9402 22.6301H17.7716C15.8358 22.133 13.9569 21.4365 12.1649 20.5517C10.8204 19.8879 9.52961 19.1203 8.3043 18.2559L22.9915 17.8934L19.1732 8.17844L21.1065 6.97011L26.9842 11.7404C25.5366 6.44821 20.7483 2.3892 14.9765 2.19135Z" fill="url(#paint1_linear_347_310)"/>
  <path d="M18.132 36.6517C19.3247 34.6723 20.2818 32.5601 20.9837 30.3583V30.3563C20.5108 31.6675 19.6389 32.7975 18.4905 33.5875C17.3422 34.3775 15.9751 34.7878 14.5816 34.7607H14.4889C13.151 34.798 11.8343 34.421 10.7189 33.6812C9.12496 32.6169 8.0858 30.3583 8.0858 30.3583C9.38647 34.4415 11.5589 38.1934 14.4527 41.3541L14.5302 41.4387L14.5352 41.4447L14.5366 41.4431L14.5403 41.4468V41.4417H14.5378L14.5403 41.4387L14.6178 41.3541C15.9416 39.9065 17.1188 38.3314 18.132 36.6517Z" fill="url(#paint2_linear_347_310)"/>
  <path d="M14.5302 41.4417V41.4528L14.5352 41.4478L14.5302 41.4417Z" fill="url(#paint3_linear_347_310)"/>
  <defs>
    <linearGradient id="paint0_linear_347_310" x1="14.5349" y1="0.547211" x2="14.5349" y2="41.4528" gradientUnits="userSpaceOnUse">
      <stop stop-color="#7857FF"/>
      <stop offset="1" stop-color="#3B82F6"/>
    </linearGradient>
    <linearGradient id="paint1_linear_347_310" x1="14.5349" y1="0.547211" x2="14.5349" y2="41.4528" gradientUnits="userSpaceOnUse">
      <stop stop-color="#7857FF"/>
      <stop offset="1" stop-color="#3B82F6"/>
    </linearGradient>
    <linearGradient id="paint2_linear_347_310" x1="14.5349" y1="0.547211" x2="14.5349" y2="41.4528" gradientUnits="userSpaceOnUse">
      <stop stop-color="#7857FF"/>
      <stop offset="1" stop-color="#3B82F6"/>
    </linearGradient>
    <linearGradient id="paint3_linear_347_310" x1="14.5349" y1="0.547211" x2="14.5349" y2="41.4528" gradientUnits="userSpaceOnUse">
      <stop stop-color="#7857FF"/>
      <stop offset="1" stop-color="#3B82F6"/>
    </linearGradient>
  </defs>
</svg> 